{
  "accessors": [
    {
      "bufferView": 2,
      "componentType": 5126,
      "count": 10130,
      "max": [
        30.03730583190918,
        23.118793487548828,
        56.98855972290039
      ],
      "min": [
        -30.441062927246094,
        -26.195011138916016,
        -1.6827179193496704
      ],
      "type": "VEC3"
    },
    {
      "bufferView": 2,
      "byteOffset": 121560,
      "componentType": 5126,
      "count": 10130,
      "max": [
        0.9999964237213135,
        0.9999992251396179,
        1.0
      ],
      "min": [
        -0.9999978542327881,
        -0.9999805688858032,
        -0.9999998211860657
      ],
      "type": "VEC3"
    },
    {
      "bufferView": 1,
      "componentType": 5126,
      "count": 10130,
      "max": [
        0.8161489963531494,
        0.9758597612380981
      ],
      "min": [
        0.06790890544652939,
        0.053383827209472656
      ],
      "type": "VEC2"
    },
    {
      "bufferView": 0,
      "componentType": 5125,
      "count": 46122,
      "type": "SCALAR"
    }
  ],
  "asset": {
    "extras": {
      "author": "Mora (https://sketchfab.com/MoraAzul)",
      "license": "CC-BY-4.0 (http://creativecommons.org/licenses/by/4.0/)",
      "source": "https://sketchfab.com/3d-models/little-chiken-311648b8c36948a3ad4afea9221f4818",
      "title": "Little chiken :)"
    },
    "generator": "Sketchfab-15.40.0",
    "version": "2.0"
  },
  "bufferViews": [
    {
      "buffer": 0,
      "byteLength": 184488,
      "name": "floatBufferViews",
      "target": 34963
    },
    {
      "buffer": 0,
      "byteLength": 81040,
      "byteOffset": 184488,
      "byteStride": 8,
      "name": "floatBufferViews",
      "target": 34962
    },
    {
      "buffer": 0,
      "byteLength": 243120,
      "byteOffset": 265528,
      "byteStride": 12,
      "name": "floatBufferViews",
      "target": 34962
    }
  ],
  "buffers": [
    {
      "byteLength": 508648,
      "uri": "scene.bin"
    }
  ],
  "images": [
    {
      "uri": "textures/MAT_PATO_baseColor.png"
    }
  ],
  "materials": [
    {
      "doubleSided": true,
      "name": "MAT_PATO",
      "pbrMetallicRoughness": {
        "baseColorTexture": {
          "index": 0
        },
        "metallicFactor": 0.0,
        "roughnessFactor": 0.29104850605258986
      }
    }
  ],
  "meshes": [
    {
      "name": "MSH_Pollo_MAT_PATO_0",
      "primitives": [
        {
          "attributes": {
            "NORMAL": 1,
            "POSITION": 0,
            "TEXCOORD_0": 2
          },
          "indices": 3,
          "material": 0,
          "mode": 4
        }
      ]
    }
  ],
  "nodes": [
    {
      "children": [
        1
      ],
      "matrix": [
        1.0,
        0.0,
        0.0,
        0.0,
        0.0,
        2.220446049250313e-16,
        -1.0,
        0.0,
        0.0,
        1.0,
        2.220446049250313e-16,
        0.0,
        0.0,
        0.0,
        0.0,
        1.0
      ],
      "name": "Sketchfab_model"
    },
    {
      "children": [
        2
      ],
      "matrix": [
        0.10000000149011612,
        0.0,
        0.0,
        0.0,
        0.0,
        0.0,
        0.10000000149011612,
        0.0,
        0.0,
        -0.10000000149011612,
        0.0,
        0.0,
        0.0,
        0.0,
        0.0,
        1.0
      ],
      "name": "6e09c4435b634798bae0a82716816d78.fbx"
    },
    {
      "children": [
        3
      ],
      "name": "RootNode"
    },
    {
      "children": [
        4
      ],
      "matrix": [
        1.0,
        0.0,
        0.0,
        0.0,
        0.0,
        2.220446049250313e-16,
        -1.0,
        0.0,
        0.0,
        1.0,
        2.220446049250313e-16,
        0.0,
        6.67572021484375e-06,
        31.178220748901367,
        -1.0575532913208008,
        1.0
      ],
      "name": "MSH_Pollo"
    },
    {
      "children": [
        5
      ],
      "matrix": [
        1.0,
        0.0,
        -0.0,
        0.0,
        0.0,
        1.0,
        0.0,
        0.0,
        0.0,
        0.0,
        1.0,
        0.0,
        -6.67572021484375e-06,
        6.67572021484375e-06,
        -29.479795455932617,
        1.0
      ],
      "name": "Object_4"
    },
    {
      "mesh": 0,
      "name": "MSH_Pollo_MAT_PATO_0"
    }
  ],
  "samplers": [
    {
      "magFilter": 9729,
      "minFilter": 9987,
      "wrapS": 10497,
      "wrapT": 10497
    }
  ],
  "scene": 0,
  "scenes": [
    {
      "name": "Sketchfab_Scene",
      "nodes": [
        0
      ]
    }
  ],
  "textures": [
    {
      "sampler": 0,
      "source": 0
    }
  ]
}
